<svg width="28" height="28" viewBox="0 0 28 28" fill="none" xmlns="http://www.w3.org/2000/svg">
<g clip-path="url(#clip0_604_824)">
<path fill-rule="evenodd" clip-rule="evenodd" d="M14 0C6.2678 0 0 6.2678 0 14C0 21.7322 6.2678 28 14 28C21.7322 28 28 21.7322 28 14C28 6.2678 21.7322 0 14 0ZM13.4568 20.0214H11.2042V15.435C11.2042 14.525 11.1636 13.9482 11.0782 13.7032C10.9928 13.4568 10.8416 13.2636 10.626 13.1208C10.409 12.9738 10.1388 12.9024 9.8126 12.9024C9.4402 12.9024 9.1042 12.9962 8.813 13.181C8.5162 13.3672 8.302 13.6472 8.1662 14.0196C8.029 14.3934 7.9604 14.9436 7.9632 15.6744L7.9604 20.0228H5.7106V7.6818H7.9632V12.4446C8.6884 11.5808 9.5564 11.1454 10.5644 11.1454C11.0838 11.1454 11.5486 11.2448 11.9658 11.4408C12.3844 11.6368 12.6966 11.8874 12.908 12.1912C13.1208 12.4992 13.2636 12.8352 13.3406 13.2062C13.4176 13.5758 13.4568 14.1498 13.4568 14.9296V20.0214ZM22.3272 20.0214H20.0774V15.435C20.0774 14.525 20.0354 13.9482 19.9486 13.7032C19.8632 13.4568 19.7134 13.2636 19.495 13.1208C19.2808 12.9738 19.0078 12.9024 18.6816 12.9024C18.3092 12.9024 17.9746 12.9962 17.682 13.181C17.388 13.3672 17.1738 13.6472 17.0366 14.0196C16.9022 14.3934 16.8336 14.9436 16.8336 15.6744V20.0228H14.5838V7.6818H16.8336V12.4446C17.5588 11.5808 18.4268 11.1454 19.4348 11.1454C19.9514 11.1454 20.4204 11.2448 20.8376 11.4408C21.2534 11.6368 21.567 11.8874 21.777 12.1912C21.9898 12.4992 22.134 12.8352 22.2096 13.2062C22.2866 13.5758 22.3258 14.1498 22.3258 14.9296V20.0214H22.3272Z" fill="black"/>
</g>
<defs>
<clipPath id="clip0_604_824">
<rect width="28" height="28" fill="white"/>
</clipPath>
</defs>
</svg>
