<svg width="90" height="44" viewBox="0 0 90 44" fill="none" xmlns="http://www.w3.org/2000/svg">
<path d="M8.7255 7.182L12.222 20.643C12.278 20.881 12.194 21 11.97 21H9.492C9.289 21 9.17 20.916 9.135 20.748L8.589 18.417H4.326L3.78 20.748C3.745 20.916 3.626 21 3.423 21H0.945C0.721 21 0.637 20.881 0.693 20.643L4.1895 7.182C4.2315 7.014 4.3505 6.93 4.5465 6.93H8.3685C8.5645 6.93 8.6835 7.014 8.7255 7.182ZM6.2895 10.1115L4.9455 15.813H7.9695L6.6255 10.1115H6.2895ZM21.8449 3.3915C21.2219 3.9725 20.3994 4.263 19.3774 4.263C18.3554 4.263 17.5329 3.9725 16.9099 3.3915C16.2869 2.8105 15.9299 2.079 15.8389 1.197C15.8179 0.972999 15.9229 0.860999 16.1539 0.860999H17.4139C17.5889 0.860999 17.7009 0.965999 17.7499 1.176C17.8269 1.505 18.0089 1.792 18.2959 2.037C18.5829 2.275 18.9434 2.394 19.3774 2.394C19.8114 2.394 20.1719 2.275 20.4589 2.037C20.7459 1.792 20.9279 1.505 21.0049 1.176C21.0539 0.965999 21.1659 0.860999 21.3409 0.860999H22.6009C22.8319 0.860999 22.9369 0.972999 22.9159 1.197C22.8249 2.079 22.4679 2.8105 21.8449 3.3915ZM24.0184 6.93C24.1094 6.93 24.1829 6.958 24.2389 7.014C24.3019 7.07 24.3334 7.147 24.3334 7.245V20.685C24.3334 20.783 24.3019 20.86 24.2389 20.916C24.1829 20.972 24.1094 21 24.0184 21H21.9079C21.8099 21 21.7329 20.972 21.6769 20.916C21.6209 20.86 21.5929 20.783 21.5929 20.685V12.0645L17.7919 20.79C17.7289 20.93 17.6029 21 17.4139 21H14.7469C14.6489 21 14.5719 20.972 14.5159 20.916C14.4599 20.86 14.4319 20.783 14.4319 20.685V7.245C14.4319 7.147 14.4599 7.07 14.5159 7.014C14.5719 6.958 14.6489 6.93 14.7469 6.93H16.8469C16.9449 6.93 17.0219 6.958 17.0779 7.014C17.1339 7.07 17.1619 7.147 17.1619 7.245V15.8655L20.9629 7.14C21.0259 7 21.1519 6.93 21.3409 6.93H24.0184ZM34.6073 6.93H37.0433C37.1343 6.93 37.2078 6.958 37.2638 7.014C37.3268 7.07 37.3583 7.147 37.3583 7.245V20.685C37.3583 20.783 37.3268 20.86 37.2638 20.916C37.2078 20.972 37.1343 21 37.0433 21H34.6073C34.5163 21 34.4393 20.972 34.3763 20.916C34.3203 20.86 34.2923 20.783 34.2923 20.685V15.456H30.3023V20.685C30.3023 20.783 30.2708 20.86 30.2078 20.916C30.1518 20.972 30.0783 21 29.9873 21H27.5513C27.4603 21 27.3833 20.972 27.3203 20.916C27.2643 20.86 27.2363 20.783 27.2363 20.685V7.245C27.2363 7.147 27.2643 7.07 27.3203 7.014C27.3833 6.958 27.4603 6.93 27.5513 6.93H29.9873C30.0783 6.93 30.1518 6.958 30.2078 7.014C30.2708 7.07 30.3023 7.147 30.3023 7.245V12.747H34.2923V7.245C34.2923 7.147 34.3203 7.07 34.3763 7.014C34.4393 6.958 34.5163 6.93 34.6073 6.93ZM48.4198 6.93H50.9713C51.0903 6.93 51.1673 6.9685 51.2023 7.0455C51.2443 7.1155 51.2373 7.203 51.1813 7.308L44.1673 20.79C44.0973 20.93 43.9713 21 43.7893 21H41.2168C40.9508 21 40.8808 20.874 41.0068 20.622L43.5688 15.708L39.2533 7.308C39.1973 7.203 39.1868 7.1155 39.2218 7.0455C39.2638 6.9685 39.3443 6.93 39.4633 6.93H42.0148C42.1968 6.93 42.3228 7 42.3928 7.14L45.1438 12.684L48.0418 7.14C48.1118 7 48.2378 6.93 48.4198 6.93ZM53.3807 6.93H58.3577C60.1707 6.93 61.4937 7.336 62.3267 8.148C63.1667 8.953 63.5867 10.143 63.5867 11.718C63.5867 14.917 61.8437 16.5165 58.3577 16.5165H56.1317V20.685C56.1317 20.783 56.1037 20.86 56.0477 20.916C55.9917 20.972 55.9147 21 55.8167 21H53.3807C53.2827 21 53.2057 20.972 53.1497 20.916C53.0937 20.86 53.0657 20.783 53.0657 20.685V7.245C53.0657 7.147 53.0937 7.07 53.1497 7.014C53.2057 6.958 53.2827 6.93 53.3807 6.93ZM56.1317 13.8075H58.2317C59.0437 13.8075 59.6492 13.65 60.0482 13.335C60.4472 13.02 60.6467 12.481 60.6467 11.718C60.6467 10.948 60.4472 10.409 60.0482 10.101C59.6562 9.793 59.0507 9.639 58.2317 9.639H56.1317V13.8075ZM3.4125 44H1.554C1.456 44 1.379 43.972 1.323 43.916C1.267 43.86 1.239 43.783 1.239 43.685V30.245C1.239 30.147 1.267 30.07 1.323 30.014C1.379 29.958 1.456 29.93 1.554 29.93H3.9795C4.2035 29.93 4.3295 30 4.3575 30.14L6.384 39.464H6.531L8.5575 30.14C8.5855 30 8.7115 29.93 8.9355 29.93H11.361C11.459 29.93 11.536 29.958 11.592 30.014C11.648 30.07 11.676 30.147 11.676 30.245V43.685C11.676 43.783 11.648 43.86 11.592 43.916C11.536 43.972 11.459 44 11.361 44H9.5025C9.4115 44 9.3345 43.972 9.2715 43.916C9.2155 43.86 9.1875 43.783 9.1875 43.685V36.1145H9.0405L7.497 42.698C7.455 42.866 7.329 42.95 7.119 42.95H5.796C5.586 42.95 5.46 42.866 5.418 42.698L3.8745 36.1145H3.7275V43.685C3.7275 43.783 3.696 43.86 3.633 43.916C3.577 43.972 3.5035 44 3.4125 44ZM21.6454 30.182L25.1419 43.643C25.1979 43.881 25.1139 44 24.8899 44H22.4119C22.2089 44 22.0899 43.916 22.0549 43.748L21.5089 41.417H17.2459L16.6999 43.748C16.6649 43.916 16.5459 44 16.3429 44H13.8649C13.6409 44 13.5569 43.881 13.6129 43.643L17.1094 30.182C17.1514 30.014 17.2704 29.93 17.4664 29.93H21.2884C21.4844 29.93 21.6034 30.014 21.6454 30.182ZM19.2094 33.1115L17.8654 38.813H20.8894L19.5454 33.1115H19.2094ZM35.1428 36.1565L38.3558 43.622C38.4678 43.874 38.4048 44 38.1668 44H36.0248C35.8148 44 35.6888 43.937 35.6468 43.811L33.7568 38.8865L33.6308 39.128V43.685C33.6308 43.783 33.6028 43.86 33.5468 43.916C33.4908 43.972 33.4138 44 33.3158 44H31.2893C31.1983 44 31.1213 43.972 31.0583 43.916C31.0023 43.86 30.9743 43.783 30.9743 43.685V39.149L30.8378 38.8865L28.9478 43.811C28.9058 43.937 28.7798 44 28.5698 44H26.4278C26.1898 44 26.1268 43.874 26.2388 43.622L29.4623 36.167L26.4803 30.308C26.3543 30.056 26.4103 29.93 26.6483 29.93H28.8533C29.0633 29.93 29.1928 29.986 29.2418 30.098L30.9743 34.3085V30.245C30.9743 30.147 31.0023 30.07 31.0583 30.014C31.1213 29.958 31.1983 29.93 31.2893 29.93H33.3158C33.4138 29.93 33.4908 29.958 33.5468 30.014C33.6028 30.07 33.6308 30.147 33.6308 30.245V34.277L35.3528 30.098C35.4018 29.986 35.5313 29.93 35.7413 29.93H37.9463C38.1843 29.93 38.2403 30.056 38.1143 30.308L35.1428 36.1565ZM49.8583 29.93C49.9493 29.93 50.0228 29.958 50.0788 30.014C50.1418 30.07 50.1733 30.147 50.1733 30.245V43.685C50.1733 43.783 50.1418 43.86 50.0788 43.916C50.0228 43.972 49.9493 44 49.8583 44H47.7478C47.6498 44 47.5728 43.972 47.5168 43.916C47.4608 43.86 47.4328 43.783 47.4328 43.685V35.0645L43.6318 43.79C43.5688 43.93 43.4428 44 43.2538 44H40.5868C40.4888 44 40.4118 43.972 40.3558 43.916C40.2998 43.86 40.2718 43.783 40.2718 43.685V30.245C40.2718 30.147 40.2998 30.07 40.3558 30.014C40.4118 29.958 40.4888 29.93 40.5868 29.93H42.6868C42.7848 29.93 42.8618 29.958 42.9178 30.014C42.9738 30.07 43.0018 30.147 43.0018 30.245V38.8655L46.8028 30.14C46.8658 30 46.9918 29.93 47.1808 29.93H49.8583ZM59.0402 36.3245L64.0592 43.622C64.1362 43.727 64.1537 43.818 64.1117 43.895C64.0767 43.965 63.9962 44 63.8702 44H61.2032C61.0422 44 60.9162 43.937 60.8252 43.811L57.2552 38.624L55.8167 40.493V43.685C55.8167 43.783 55.7887 43.86 55.7327 43.916C55.6767 43.972 55.5997 44 55.5017 44H53.0657C52.9677 44 52.8907 43.972 52.8347 43.916C52.7787 43.86 52.7507 43.783 52.7507 43.685V30.245C52.7507 30.147 52.7787 30.07 52.8347 30.014C52.8907 29.958 52.9677 29.93 53.0657 29.93H55.5017C55.5997 29.93 55.6767 29.958 55.7327 30.014C55.7887 30.07 55.8167 30.147 55.8167 30.245V36.1985L60.2267 30.098C60.3107 29.986 60.4367 29.93 60.6047 29.93H63.5132C63.6462 29.93 63.7267 29.9685 63.7547 30.0455C63.7827 30.1225 63.7582 30.21 63.6812 30.308L59.0402 36.3245ZM75.5826 44H66.5316C66.4336 44 66.3566 43.972 66.3006 43.916C66.2446 43.86 66.2166 43.783 66.2166 43.685V30.245C66.2166 30.147 66.2446 30.07 66.3006 30.014C66.3566 29.958 66.4336 29.93 66.5316 29.93H75.5616C75.6596 29.93 75.7366 29.958 75.7926 30.014C75.8486 30.07 75.8766 30.147 75.8766 30.245V32.324C75.8766 32.422 75.8486 32.499 75.7926 32.555C75.7366 32.611 75.6596 32.639 75.5616 32.639H69.2826V35.5895H75.0891C75.1801 35.5895 75.2536 35.621 75.3096 35.684C75.3726 35.74 75.4041 35.8135 75.4041 35.9045V37.9835C75.4041 38.0745 75.3726 38.1515 75.3096 38.2145C75.2536 38.2705 75.1801 38.2985 75.0891 38.2985H69.2826V41.291H75.5826C75.6806 41.291 75.7576 41.319 75.8136 41.375C75.8696 41.431 75.8976 41.508 75.8976 41.606V43.685C75.8976 43.783 75.8696 43.86 75.8136 43.916C75.7576 43.972 75.6806 44 75.5826 44ZM86.287 29.93H88.723C88.814 29.93 88.8875 29.958 88.9435 30.014C89.0065 30.07 89.038 30.147 89.038 30.245V43.685C89.038 43.783 89.0065 43.86 88.9435 43.916C88.8875 43.972 88.814 44 88.723 44H86.287C86.196 44 86.119 43.972 86.056 43.916C86 43.86 85.972 43.783 85.972 43.685V38.456H81.982V43.685C81.982 43.783 81.9505 43.86 81.8875 43.916C81.8315 43.972 81.758 44 81.667 44H79.231C79.14 44 79.063 43.972 79 43.916C78.944 43.86 78.916 43.783 78.916 43.685V30.245C78.916 30.147 78.944 30.07 79 30.014C79.063 29.958 79.14 29.93 79.231 29.93H81.667C81.758 29.93 81.8315 29.958 81.8875 30.014C81.9505 30.07 81.982 30.147 81.982 30.245V35.747H85.972V30.245C85.972 30.147 86 30.07 86.056 30.014C86.119 29.958 86.196 29.93 86.287 29.93Z" fill="#ECECEC"/>
</svg>
