<svg width="30" height="25" viewBox="0 0 30 25" fill="none" xmlns="http://www.w3.org/2000/svg">
<path d="M2.38389 0.0161942C4.18688 -0.0971658 6.21597 0.385934 7.90369 1.42403C9.5914 2.46213 10.9377 4.05522 11.6497 5.71556C12.3975 7.3601 12.6683 9.4283 12.2989 11.3749C11.9296 13.3216 10.9201 15.1469 9.62192 16.4033C9.07756 16.969 8.15106 17.2518 7.38355 17.0863C6.60878 16.9591 5.85022 16.3567 5.55092 15.6309L0.212969 3.5456C-0.121986 2.8355 -0.0564001 1.86905 0.371422 1.2107C0.766045 0.531944 1.59904 0.0375142 2.38389 0.0161942Z" fill="url(#paint0_linear_1813_30)"/>
<path d="M29.9486 1.32722C30.012 1.18933 30.0132 1.01218 29.9517 0.873444C29.8944 0.732924 29.766 0.610914 29.6227 0.560924C27.6559 -0.210276 24.9988 -0.218367 22.7516 0.737333C20.5043 1.69304 18.667 3.61256 17.8581 5.56416L10.2125 22.8791C10.1491 23.017 10.1479 23.1942 10.2094 23.3329C10.2667 23.4734 10.3951 23.5954 10.5384 23.6454C12.5052 24.4166 15.1623 24.4247 17.4096 23.469C19.6568 22.5133 21.4942 20.5938 22.303 18.6422L29.9486 1.32722Z" fill="url(#paint1_linear_1813_30)"/>
<defs>
<linearGradient id="paint0_linear_1813_30" x1="6.23146" y1="0" x2="6.23146" y2="17.1332" gradientUnits="userSpaceOnUse">
<stop stop-color="#8C39FF"/>
<stop offset="1" stop-color="#6100FF"/>
</linearGradient>
<linearGradient id="paint1_linear_1813_30" x1="20.0805" y1="0" x2="20.0805" y2="24.2063" gradientUnits="userSpaceOnUse">
<stop stop-color="#8C39FF"/>
<stop offset="1" stop-color="#6100FF"/>
</linearGradient>
</defs>
</svg>
